<svg xmlns="http://www.w3.org/2000/svg" width="48" height="48" viewBox="0 0 48 48"><defs><style>.a{fill:#fff;opacity:0;}.b{opacity:0.25;}</style></defs><g transform="translate(-6714 -836)"><rect class="a" width="48" height="48" transform="translate(6714 836)"/><path class="b" d="M22.142,8A14.142,14.142,0,1,0,36.284,22.142,14.158,14.158,0,0,0,22.142,8Zm9.35,6.522a12.022,12.022,0,0,1,2.728,7.524,28.228,28.228,0,0,0-8.411-.389c-.328-.8-.638-1.505-1.062-2.373a16.09,16.09,0,0,0,6.745-4.763Zm-1.343-1.4a13.638,13.638,0,0,1-6.331,4.363,64.475,64.475,0,0,0-4.507-7.071A12.048,12.048,0,0,1,30.149,13.125Zm-13.143-1.9a77.074,77.074,0,0,1,4.478,6.986,45.056,45.056,0,0,1-11.167,1.472A12.123,12.123,0,0,1,17.006,11.229ZM10.063,22.16c0-.124,0-.246.006-.369a44.558,44.558,0,0,0,12.414-1.719c.346.677.676,1.364.979,2.05a18.71,18.71,0,0,0-10.294,8.115A12.031,12.031,0,0,1,10.063,22.16Zm4.665,9.529c1.262-2.579,4.686-5.909,9.556-7.57a50.21,50.21,0,0,1,2.577,9.16,12.055,12.055,0,0,1-12.133-1.59Zm14.163.484a52.135,52.135,0,0,0-2.347-8.612,17.73,17.73,0,0,1,7.524.516A12.1,12.1,0,0,1,28.891,32.174Z" transform="translate(6716.509 838.509)"/></g></svg>