<svg xmlns="http://www.w3.org/2000/svg" width="48" height="48" viewBox="0 0 48 48"><defs><style>.a{fill:#fff;opacity:0;}.b{opacity:0.25;}</style></defs><g transform="translate(-6794 -836)"><rect class="a" width="48" height="48" transform="translate(6794 836)"/><path class="b" d="M9.877,31.183c0,.119-.137.214-.31.214-.2.018-.333-.077-.333-.214,0-.119.137-.214.31-.214C9.722,30.951,9.877,31.046,9.877,31.183Zm-1.852-.268c-.042.119.077.256.256.292a.279.279,0,0,0,.369-.119c.036-.119-.077-.256-.256-.31A.306.306,0,0,0,8.025,30.916Zm2.632-.1c-.173.042-.292.155-.274.292.018.119.173.2.351.155s.292-.155.274-.274S10.83,30.8,10.657,30.814ZM14.574,8A14.276,14.276,0,0,0,0,22.527,14.926,14.926,0,0,0,10.091,36.768c.762.137,1.03-.333,1.03-.72,0-.369-.018-2.405-.018-3.656,0,0-4.168.893-5.043-1.774,0,0-.679-1.733-1.655-2.179,0,0-1.363-.935.1-.917a3.143,3.143,0,0,1,2.3,1.536,3.147,3.147,0,0,0,4.34,1.244,3.309,3.309,0,0,1,.953-2.006c-3.328-.369-6.686-.851-6.686-6.579A4.512,4.512,0,0,1,6.811,18.21a5.625,5.625,0,0,1,.155-4.043c1.244-.387,4.108,1.607,4.108,1.607a14.065,14.065,0,0,1,7.478,0s2.864-2,4.108-1.607a5.622,5.622,0,0,1,.155,4.043,4.628,4.628,0,0,1,1.536,3.507c0,5.745-3.507,6.2-6.835,6.579a3.521,3.521,0,0,1,1.012,2.762c0,2.006-.018,4.489-.018,4.977,0,.387.274.857,1.03.72a14.789,14.789,0,0,0,9.99-14.229C29.53,14.269,22.832,8,14.574,8ZM5.787,28.534c-.077.06-.06.2.042.31.1.1.232.137.31.06.077-.06.06-.2-.042-.31C6,28.5,5.864,28.457,5.787,28.534Zm-.643-.482c-.042.077.018.173.137.232a.177.177,0,0,0,.256-.042c.042-.077-.018-.173-.137-.232C5.281,27.974,5.186,27.992,5.144,28.052Zm1.929,2.119c-.1.077-.06.256.077.369.137.137.31.155.387.06.077-.077.042-.256-.077-.369C7.329,30.094,7.15,30.076,7.073,30.171ZM6.394,29.3c-.1.06-.1.214,0,.351s.256.2.333.137a.272.272,0,0,0,0-.369C6.644,29.278,6.489,29.219,6.394,29.3Z" transform="translate(6804 838)"/></g></svg>