<svg xmlns="http://www.w3.org/2000/svg" width="48" height="48" viewBox="0 0 48 48"><defs><style>.a{fill:#fff;opacity:0;}.b{opacity:0.25;}</style></defs><g transform="translate(-6575 -867)"><rect class="a" width="48" height="48" transform="translate(6575 867)"/><path class="b" d="M6.4,28.6H.472V9.51H6.4ZM3.432,6.907A3.449,3.449,0,1,1,6.864,3.442,3.461,3.461,0,0,1,3.432,6.907ZM28.58,28.6H22.666V19.3c0-2.214-.045-5.054-3.081-5.054-3.081,0-3.553,2.406-3.553,4.894V28.6h-5.92V9.51H15.8v2.6h.083a6.227,6.227,0,0,1,5.607-3.082c6,0,7.1,3.95,7.1,9.08V28.6Z" transform="translate(6585.207 877.197)"/></g></svg>