<?xml version="1.0" standalone="no"?>
<!DOCTYPE svg PUBLIC "-//W3C//DTD SVG 20010904//EN"
 "http://www.w3.org/TR/2001/REC-SVG-20010904/DTD/svg10.dtd">
<svg version="1.0" xmlns="http://www.w3.org/2000/svg"
 width="2132.000000pt" height="2132.000000pt" viewBox="0 0 2132.000000 2132.000000"
 preserveAspectRatio="xMidYMid meet">
<metadata>
Created by potrace 1.11, written by Peter Selinger 2001-2013
</metadata>
<g transform="translate(0.000000,2132.000000) scale(0.100000,-0.100000)"
fill="#000000" stroke="none">
<path d="M7490 15065 c-36 -7 -68 -11 -72 -8 -5 2 -8 0 -8 -5 0 -5 -6 -9 -12
-9 -10 0 -60 -13 -108 -28 -60 -19 -198 -91 -275 -144 -62 -42 -442 -416
-1703 -1676 -892 -892 -1624 -1619 -1627 -1617 -3 3 -5 1 -5 -5 0 -6 -760
-771 -1690 -1700 -1434 -1434 -1729 -1734 -1797 -1828 -34 -47 -126 -233 -126
-255 0 -8 -3 -20 -8 -25 -8 -10 -25 -73 -34 -125 -2 -14 -9 -50 -14 -80 -10
-58 -7 -277 4 -345 4 -22 7 -46 8 -52 0 -7 4 -13 8 -13 5 0 6 -7 3 -15 -4 -8
-1 -22 6 -30 7 -8 10 -15 7 -15 -9 0 30 -106 69 -189 37 -77 96 -170 143 -226
74 -86 216 -215 240 -215 6 0 11 -4 11 -9 0 -9 54 -40 160 -92 76 -37 192 -75
255 -84 11 -2 34 -6 50 -10 46 -10 270 -13 318 -5 23 5 60 10 82 13 22 3 72
16 110 28 39 13 73 22 78 21 4 -1 7 3 7 8 0 6 6 10 13 8 21 -5 205 100 278
157 37 30 1362 1349 2944 2931 l2876 2876 952 -951 c524 -523 966 -962 982
-977 43 -37 142 -104 154 -104 5 0 11 -4 13 -8 8 -20 236 -112 313 -126 17 -3
41 -8 55 -11 78 -18 350 -21 390 -5 3 1 8 2 11 2 4 -1 22 3 40 9 19 5 47 12
63 15 15 2 43 11 61 18 19 8 36 12 39 8 3 -3 6 0 6 6 0 7 3 11 8 10 16 -3 171
71 203 98 8 8 20 14 26 14 6 0 13 3 15 8 2 4 28 26 58 49 61 46 146 133 200
203 19 25 37 47 40 50 12 12 109 196 115 220 3 8 14 42 25 75 11 32 22 68 25
80 2 11 6 31 9 44 23 103 27 328 9 416 -7 33 -16 76 -19 95 -3 19 -9 40 -12
45 -4 6 -7 13 -8 18 -1 4 -3 9 -4 12 -1 3 -4 10 -5 15 -1 6 -3 11 -5 13 -1 1
-3 9 -5 17 -6 30 -69 156 -107 213 -21 32 -38 60 -38 63 0 5 -42 54 -91 106
-20 21 -36 38 -35 38 3 0 -2702 2702 -2729 2725 -45 39 -162 116 -231 152 -62
33 -222 90 -271 97 -15 3 -39 8 -53 11 -47 13 -323 12 -390 0z"/>
<path d="M17328 15075 c-2 -2 -24 -6 -48 -8 -109 -11 -307 -74 -372 -119 -14
-10 -30 -18 -36 -18 -5 0 -28 -13 -50 -30 -23 -16 -44 -30 -48 -30 -3 0 -11
-6 -19 -12 -7 -7 -25 -22 -40 -33 -41 -31 -6655 -6645 -6696 -6695 -44 -56
-104 -143 -102 -150 1 -3 -4 -12 -12 -20 -7 -8 -16 -26 -20 -40 -4 -14 -11
-27 -15 -30 -8 -6 -69 -178 -77 -219 -32 -165 -37 -351 -14 -461 6 -30 13 -64
15 -75 13 -68 91 -266 108 -273 4 -2 8 -10 8 -17 0 -8 7 -21 16 -29 8 -9 13
-16 10 -16 -23 0 180 -235 246 -285 7 -6 31 -24 53 -41 91 -70 257 -151 370
-180 17 -4 35 -8 40 -10 20 -6 61 -14 95 -20 46 -8 312 -12 325 -5 11 6 12 6
72 14 61 9 202 56 278 94 64 31 163 89 175 103 3 3 23 18 45 35 22 16 1338
1327 2924 2913 l2884 2884 361 -361 c199 -199 624 -625 946 -947 322 -323 593
-594 604 -603 10 -9 26 -23 35 -31 64 -61 251 -189 251 -173 0 5 4 3 8 -2 9
-13 88 -49 100 -45 1 0 15 -6 30 -13 27 -14 174 -55 202 -56 28 -1 69 -9 79
-16 6 -3 11 -2 11 3 0 6 14 7 33 3 79 -18 214 -1 427 53 8 2 41 16 74 30 32
14 65 26 72 26 8 0 14 4 14 9 0 5 9 12 20 16 28 9 164 99 199 132 16 15 40 37
53 49 110 99 230 280 283 426 22 61 44 130 43 137 0 3 0 8 2 11 2 5 5 21 18
93 10 52 8 317 -2 357 -4 14 -9 36 -12 50 -9 45 -25 104 -36 135 -25 68 -102
225 -110 225 -5 0 -6 5 -3 10 3 6 2 10 -3 10 -4 0 -18 18 -31 40 -12 22 -26
40 -32 40 -5 0 -9 5 -9 11 0 6 -21 33 -47 60 -64 68 -2753 2756 -2801 2801
-57 52 -167 129 -248 170 -73 39 -223 92 -284 102 -19 3 -46 8 -60 12 -29 7
-296 15 -302 9z"/>
<path d="M15527 8544 c-1 -1 -33 -5 -72 -9 -38 -3 -72 -8 -75 -10 -4 -2 -17
-6 -31 -8 -13 -3 -44 -11 -69 -18 -25 -7 -47 -13 -50 -14 -3 0 -15 -6 -27 -13
-13 -7 -23 -11 -23 -8 0 8 -165 -76 -172 -88 -4 -6 -8 -6 -8 -1 0 7 -3 7 -8 0
-4 -5 -29 -26 -57 -45 -81 -56 -175 -143 -226 -210 -13 -18 -30 -38 -36 -45
-7 -8 -13 -16 -13 -19 0 -3 -12 -22 -26 -43 -54 -79 -129 -251 -150 -345 -2
-10 -6 -28 -9 -40 -28 -125 -24 -433 6 -490 6 -10 7 -18 5 -18 -3 0 1 -18 9
-40 8 -22 15 -44 16 -48 1 -4 5 -17 10 -30 5 -13 9 -26 9 -29 0 -4 20 -47 45
-97 66 -133 175 -269 300 -376 47 -40 187 -130 202 -130 7 0 13 -4 13 -10 0
-5 7 -10 15 -10 8 0 23 -4 33 -9 57 -29 152 -63 152 -54 0 3 7 0 15 -7 8 -7
22 -10 30 -6 8 3 15 2 15 -3 0 -4 6 -8 13 -8 6 -1 30 -4 52 -8 66 -11 276 -14
335 -5 75 11 152 26 158 30 2 3 2 3 47 15 17 4 36 12 43 18 7 5 15 7 18 4 8
-8 190 89 260 139 98 70 274 252 274 283 0 6 3 11 8 11 6 0 44 56 47 70 0 3
18 38 38 78 21 39 34 72 31 72 -4 0 -2 6 3 13 11 13 40 98 47 137 3 14 5 25 6
25 1 0 3 9 5 20 28 138 25 350 -6 480 -5 22 -12 49 -14 60 -3 11 -10 34 -16
50 -6 17 -14 39 -18 50 -20 54 -105 220 -121 235 -3 3 -24 30 -47 60 -67 89
-155 175 -231 225 -23 15 -42 32 -42 38 0 6 -3 7 -6 4 -4 -4 -19 2 -33 12 -71
49 -264 125 -370 146 -73 14 -294 28 -304 19z"/>
</g>
</svg>
